#!OML:ASF I:\Actors\actors\Patient Classification 1\Patient 1\Session 1\Subject1.ASF
:FULLY-SPECIFIED
:DEGREES
563
root 0.667112 17.5741 7.97769 12.4149 -1.46196 -9.75113
lowerback 3.46318 2.67074 2.6144
upperback -8.13653 3.95519 1.119
thorax -10.5086 1.7718 -0.753793
lowerneck -12.1172 -5.05663 -5.31495
upperneck 20.6934 -8.85855 12.7818
head 9.33688 -3.28639 4.23414
rclavicle -1.16786e-015 -1.51076e-014
rhumerus -2.46864 34.4375 -96.5825
rradius 76.2908
rwrist 46.0293
rhand -13.7232 -62.7197
rfingers 7.12502
rthumb 12.396 -987.668
lclavicle -1.16786e-015 -1.51076e-014
lhumerus -5.04024 -35.3582 80.3677
lradius 64.5643
lwrist -26.8133
lhand -43.9609 -14.4082
lfingers 7.12502
lthumb -16.7836 14.8864
rfemur -9.79556 22.5415 22.2348
rtibia 4.04069
rfoot -12.5975 -27.315
rtoes 5.87523
lfemur -3.54894 -36.6478 -7.87452
ltibia -2.71628
lfoot -15.6035 46.7937
ltoes 9.6601
564
root 0.675654 17.5741 7.98065 12.3507 -1.36892 -9.7364
lowerback 3.49372 2.65297 2.60421
upperback -8.1388 3.93439 1.14772
thorax -10.533 1.76343 -0.71678
lowerneck -11.9086 -5.11913 -5.5882
upperneck 20.3632 -8.94474 13.1709
head 9.22494 -3.32901 4.40342
rclavicle 4.09993e-015 -1.27222e-014
rhumerus -2.46053 34.7642 -96.3196
rradius 76.6091
rwrist 46.1117
rhand -14.0514 -62.8603
rfingers 7.12502
rthumb 12.0795 -987.508
lclavicle 4.09993e-015 -1.27222e-014
lhumerus -5.16712 -35.0912 80.5344
lradius 64.6218
lwrist -27.4552
lhand -43.3101 -14.1969
lfingers 7.12502
lthumb -16.157 15.1497
rfemur -9.68369 22.5238 22.2242
rtibia 3.98857
rfoot -12.5904 -27.4313
rtoes 5.68977
lfemur -3.49722 -36.7351 -7.95638
ltibia -2.68002
lfoot -15.7946 46.708
ltoes 10.0158
565
root 0.683555 17.5743 7.98289 12.3167 -1.34736 -9.73114
lowerback 3.48276 2.63614 2.61279
upperback -8.15809 3.91306 1.15307
thorax -10.5486 1.75224 -0.713163
lowerneck -11.6673 -5.15188 -5.77094
upperneck 20.0168 -9.00394 13.5515
head 9.09499 -3.35549 4.5577
rclavicle 3.8763e-015 -1.59028e-015
rhumerus -1.73311 35.9246 -95.4237
rradius 76.287
rwrist 45.5678
rhand -13.9003 -63.6497
rfingers 7.12502
rthumb 12.2253 -986.728
lclavicle 3.8763e-015 -1.59028e-015
lhumerus -5.18502 -34.3437 80.5683
lradius 64.5346
lwrist -29.0553
lhand -41.5394 -15.3029
lfingers 7.12502
lthumb -14.4514 14.1739
rfemur -9.629 22.5833 22.2077
rtibia 3.97606
rfoot -12.6041 -27.5186
rtoes 5.82949
lfemur -3.44089 -36.8341 -8.02603
ltibia -2.67376
lfoot -16.0296 46.725
ltoes 10.3841
566
root 0.691641 17.5737 7.98517 12.2985 -1.37695 -9.72892
lowerback 3.45437 2.62992 2.64769
upperback -8.18917 3.9054 1.13018
thorax -10.5628 1.7441 -0.755234
lowerneck -11.4576 -5.17467 -5.83688
upperneck 19.7114 -9.06352 13.8758
head 8.97807 -3.37679 4.67219
rclavicle 1.67228e-014 -1.59028e-015
rhumerus -2.44425 34.7488 -96.4641
rradius 75.6742
rwrist 47.0832
rhand -13.3246 -62.6633
rfingers 7.12502
rthumb 12.7803 -987.748
lclavicle 1.67228e-014 -1.59028e-015
lhumerus -5.34562 -34.5224 80.6166
lradius 64.4806
lwrist -28.6678
lhand -42.501 -15.2854
lfingers 7.12502
lthumb -15.3778 14.1227
rfemur -9.61897 22.6079 22.1839
rtibia 3.99635
rfoot -12.6277 -27.5355
rtoes 6.03049
lfemur -3.40281 -36.7179 -8.08387
ltibia -2.68157
lfoot -15.9162 46.6488
ltoes 10.2685
567
root 0.699563 17.572 7.98832 12.2802 -1.44825 -9.70618
lowerback 3.39361 2.6342 2.66563
upperback -8.20633 3.90902 1.11299
thorax -10.5429 1.74391 -0.781105
lowerneck -11.242 -5.17787 -5.8416
upperneck 19.3428 -9.08005 14.1235
head 8.82746 -3.38388 4.75293
rclavicle -1.54058e-015 2.78299e-014
rhumerus -2.37783 34.6907 -96.6419
rradius 74.1383
rwrist 46.948
rhand -13.1072 -62.2218
rfingers 7.12502
rthumb 12.9899 -988.203
lclavicle -1.54058e-015 2.78299e-014
lhumerus -5.45419 -34.6583 80.6862
lradius 64.3796
lwrist -28.1278
lhand -43.3839 -15.6969
lfingers 7.12502
lthumb -16.2281 13.6439
rfemur -9.62807 22.6517 22.1331
rtibia 4.0582
rfoot -12.6613 -27.5417
rtoes 5.91721
lfemur -3.36195 -36.5209 -8.17287
ltibia -2.67829
lfoot -15.6608 46.5374
ltoes 9.88142
568
root 0.709037 17.57 7.99134 12.2453 -1.52319 -9.66597
lowerback 3.32935 2.6528 2.7261
upperback -8.21162 3.93361 1.07975
thorax -10.503 1.75009 -0.849584
lowerneck -10.806 -5.16042 -5.25328
upperneck 18.6876 -8.98695 13.6532
head 8.4633 -3.38327 4.49204
rclavicle -9.19379e-015 1.27222e-014
rhumerus -2.38511 34.4611 -96.9834
rradius 72.3412
rwrist 46.4921
rhand -12.4958 -61.6102
rfingers 7.12502
rthumb 13.5792 -988.853
lclavicle -9.19379e-015 1.27222e-014
lhumerus -5.455 -34.1979 80.7564
lradius 64.2077
lwrist -28.8597
lhand -42.0131 -16.7777
lfingers 7.12502
lthumb -14.9078 12.6658
rfemur -9.62163 22.6312 22.0672
rtibia 4.13463
rfoot -12.6744 -27.4644
rtoes 5.80231
lfemur -3.29696 -36.3415 -8.31194
ltibia -2.661
lfoot -15.4837 46.4282
ltoes 9.5659
569
root 0.718148 17.5692 7.99251 12.157 -1.67981 -9.62236
lowerback 3.33942 2.70006 2.74483
upperback -8.20669 3.99683 1.054
thorax -10.4985 1.77804 -0.895255
lowerneck -10.3225 -5.15928 -4.21501
upperneck 18.133 -8.92235 12.7636
head 8.09148 -3.40098 4.01745
rclavicle 1.91827e-014 2.8625e-014
rhumerus -2.53149 34.2267 -97.4606
rradius 70.623
rwrist 45.8733
rhand -11.4959 -61.0528
rfingers 7.12502
rthumb 14.5428 -989.477
lclavicle 1.91827e-014 2.8625e-014
lhumerus -5.65789 -34.5996 80.9735
lradius 64.1087
lwrist -27.836
lhand -43.1935 -16.1841
lfingers 7.12502
lthumb -16.0447 13.1716
rfemur -9.57032 22.5095 22.0126
rtibia 4.20147
rfoot -12.5629 -27.2357
rtoes 5.49828
lfemur -3.12607 -36.0366 -8.5261
ltibia -2.67753
lfoot -15.3924 46.278
ltoes 9.54463
570
root 0.723493 17.5687 7.99311 12.0541 -1.98564 -9.55934
lowerback 3.36221 2.78149 2.59919
upperback -8.17431 4.09543 1.07117
thorax -10.4838 1.83914 -0.808485
lowerneck -9.98173 -5.26625 -4.19816
upperneck 17.5651 -8.97759 12.6193
head 7.83812 -3.4744 3.95847
rclavicle -3.33958e-014 -2.54444e-014
rhumerus -2.54649 34.6276 -97.5999
rradius 68.9968
rwrist 44.6968
rhand -9.68213 -60.3567
rfingers 7.12502
rthumb 16.2897 -809.693
lclavicle -3.33958e-014 -2.54444e-014
lhumerus -5.80415 -34.5956 81.2229
lradius 63.9856
lwrist -27.7952
lhand -43.4129 -15.6731
lfingers 7.12502
lthumb -16.2559 13.6655
rfemur -9.52376 22.5038 21.9278
rtibia 4.2759
rfoot -12.4101 -26.9905
rtoes 4.98038
lfemur -2.82613 -35.8633 -8.81918
ltibia -2.76996
lfoot -15.4925 46.3618
ltoes 9.85412
571
root 0.728795 17.5654 7.99526 12.0663 -2.31174 -9.52443
lowerback 3.25329 2.8849 2.47945
upperback -8.14466 4.22103 1.09097
thorax -10.3912 1.91329 -0.728979
lowerneck -9.86327 -5.33624 -4.39153
upperneck 17.1667 -9.04252 12.8605
head 7.71265 -3.51726 4.06217
rclavicle -3.18055e-015 -1.90833e-014
rhumerus -2.43325 35.3337 -97.4048
rradius 67.7615
rwrist 43.3591
rhand -11.7583 -59.6262
rfingers 7.12502
rthumb 14.2899 -809.114
lclavicle -3.18055e-015 -1.90833e-014
lhumerus -5.8662 -34.4763 81.4503
lradius 63.9103
lwrist -28.0322
lhand -43.0463 -15.5966
lfingers 7.12502
lthumb -15.903 13.7704
rfemur -9.61179 22.5444 21.8185
rtibia 4.35518
rfoot -12.2991 -26.7427
rtoes 4.6447
lfemur -2.62127 -35.9824 -9.0159
ltibia -2.86664
lfoot -15.8311 46.7176
ltoes 10.3334
572
root 0.735366 17.5618 7.99737 12.1387 -2.53217 -9.49602
lowerback 3.07702 2.96494 2.40546
upperback -8.11694 4.31588 1.10227
thorax -10.2577 1.96926 -0.675885
lowerneck -9.7718 -5.40905 -4.71154
upperneck 16.7044 -9.09301 13.1643
head 7.5794 -3.55764 4.20833
rclavicle -1.08835e-014 4.77083e-015
rhumerus -2.48046 35.578 -97.3473
rradius 67.2065
rwrist 42.7802
rhand -10.7422 -60.185
rfingers 7.12502
rthumb 15.2688 -809.601
lclavicle -1.08835e-014 4.77083e-015
lhumerus -5.87761 -34.4634 81.5849
lradius 63.8903
lwrist -28.2352
lhand -42.8048 -15.7427
lfingers 7.12502
lthumb -15.6703 13.6427
rfemur -9.75758 22.5296 21.7071
rtibia 4.43776
rfoot -12.2766 -26.5311
rtoes 4.54856
lfemur -2.62085 -35.8344 -9.09202
ltibia -2.8852
lfoot -15.8272 46.7961
ltoes 10.2414
573
root 0.73984 17.5615 7.99797 12.172 -2.64579 -9.48366
lowerback 2.98387 3.00456 2.32117
upperback -8.08198 4.36078 1.13834
thorax -10.1705 2.00174 -0.589548
lowerneck -9.77007 -5.50041 -4.89008
upperneck 16.4083 -9.18512 13.3265
head 7.5084 -3.61074 4.27863
rclavicle 1.06847e-014 -4.77083e-015
rhumerus -2.68086 35.3419 -97.455
rradius 67.1954
rwrist 43.0786
rhand -11.7131 -60.03
rfingers 7.12502
rthumb 14.3335 -809.515
lclavicle 1.06847e-014 -4.77083e-015
lhumerus -5.92412 -34.4845 81.6763
lradius 63.9686
lwrist -28.4408
lhand -42.5994 -15.8268
lfingers 7.12502
lthumb -15.4725 13.574
rfemur -9.82734 22.5815 21.6594
rtibia 4.49578
rfoot -12.316 -26.4784
rtoes 4.57015
lfemur -2.66747 -35.4588 -9.10084
ltibia -2.88319
lfoot -15.6241 46.5929
ltoes 9.91756
574
root 0.743193 17.5639 7.99708 12.1801 -2.66958 -9.49942
lowerback 3.01606 2.99966 2.28111
upperback -8.07264 4.35592 1.1844
thorax -10.1863 2.00447 -0.519669
lowerneck -9.66855 -5.59433 -4.90862
upperneck 16.0267 -9.26133 13.2989
head 7.37345 -3.6694 4.26153
rclavicle 1.44864e-014 -2.78299e-014
rhumerus -2.94432 34.9812 -97.5844
rradius 67.6496
rwrist 43.6636
rhand -12.3646 -59.342
rfingers 7.12502
rthumb 13.7057 -808.871
lclavicle 1.44864e-014 -2.78299e-014
lhumerus -6.05368 -34.4806 81.7734
lradius 64.1253
lwrist -28.6046
lhand -42.3279 -15.8913
lfingers 7.12502
lthumb -15.211 13.5295
rfemur -9.82012 22.6648 21.6663
rtibia 4.46733
rfoot -12.2931 -26.5453
rtoes 4.47851
lfemur -2.66748 -35.3856 -9.08629
ltibia -2.90942
lfoot -15.6445 46.5455
ltoes 10.0154
575
root 0.746006 17.5683 7.9946 12.1393 -2.59974 -9.42476
lowerback 3.13956 2.93848 2.17992
upperback -8.0678 4.2704 1.19587
thorax -10.2648 1.96965 -0.448923
lowerneck -9.46221 -5.6858 -4.87004
upperneck 15.581 -9.33094 13.2381
head 7.19444 -3.73096 4.22697
rclavicle -7.70291e-015 -8.74653e-015
rhumerus -3.17836 34.8195 -97.6419
rradius 68.4987
rwrist 44.0557
rhand -13.363 -59.5481
rfingers 7.12502
rthumb 12.7433 -809.139
lclavicle -7.70291e-015 -8.74653e-015
lhumerus -6.20229 -34.4268 81.8426
lradius 64.2894
lwrist -28.6752
lhand -42.114 -16.2083
lfingers 7.12502
lthumb -15.005 13.2281
rfemur -9.71164 22.7461 21.5945
rtibia 4.35727
rfoot -12.3058 -26.7124
rtoes 4.45606
lfemur -2.65613 -35.4634 -9.18962
ltibia -2.89915
lfoot -15.6786 46.5128
ltoes 10.1754
